<svg preserveAspectRatio="none" width="100%" height="100%" overflow="visible" style="display: block;" viewBox="0 0 88.2646 88.2646" fill="none" xmlns="http://www.w3.org/2000/svg">
<g id="Group 2147226866">
<circle id="Ellipse 30" cx="44.1323" cy="44.1323" r="44.1323" fill="var(--fill-0, #FF6E6E)"/>
<g id="Group 2147226865">
<path id="&#226;&#128;&#156;" d="M66.3514 56.0741C66.3514 58.7087 65.4923 60.8851 63.7741 62.6033C62.0559 64.207 59.8222 65.0088 57.0731 65.0088C53.8658 65.0088 51.403 63.806 49.6848 61.4006C48.0811 58.9951 47.2793 55.6732 47.2793 51.435C47.2793 45.8221 48.6539 40.6102 51.403 35.7993C54.2667 30.8737 58.2186 26.6928 63.2586 23.2563L64.9768 25.8337C57.0731 31.7901 52.8921 40.1521 52.4339 50.9195C53.8085 48.7431 55.8131 47.6549 58.4477 47.6549C60.8531 47.6549 62.7432 48.4567 64.1177 50.0604C65.6069 51.664 66.3514 53.6686 66.3514 56.0741ZM40.986 56.0741C40.986 58.7087 40.1269 60.8851 38.4087 62.6033C36.6905 64.207 34.4568 65.0088 31.7077 65.0088C28.5003 65.0088 26.0376 63.806 24.3194 61.4006C22.7157 58.9951 21.9139 55.6732 21.9139 51.435C21.9139 45.8221 23.2884 40.6102 26.0376 35.7993C28.9013 30.8737 32.8531 26.6928 37.8932 23.2563L39.6114 25.8337C31.7077 31.7901 27.5267 40.1521 27.0685 50.9195C28.4431 48.7431 30.4476 47.6549 33.0822 47.6549C35.4877 47.6549 37.3777 48.4567 38.7523 50.0604C40.2414 51.664 40.986 53.6686 40.986 56.0741Z" fill="var(--fill-0, white)"/>
</g>
</g>
</svg>
