<svg preserveAspectRatio="none" width="100%" height="100%" overflow="visible" style="display: block;" viewBox="0 0 55.2161 55.2166" fill="none" xmlns="http://www.w3.org/2000/svg">
<g id="Group 2147226727">
<path id="Vector" d="M22.7552 55.2165V50.2557C19.1865 50.2557 16.2845 47.3537 16.2845 43.785C16.2845 40.2163 19.1865 37.3143 22.7552 37.3143V32.4613H13.7126L14.482 30.3002C14.6053 29.9555 14.6678 29.5921 14.6669 29.226C14.6669 27.4425 13.215 25.9907 11.4315 25.9907C9.64798 25.9907 8.19618 27.4425 8.19618 29.226C8.19618 29.5957 8.25776 29.9574 8.38103 30.3002L9.15039 32.4613H0C0.802686 44.5498 10.6667 54.4138 22.7552 55.2165Z" fill="var(--fill-0, #E22371)"/>
<path id="Vector_2" d="M11.4315 22.7549C15.0002 22.7549 17.9022 25.6569 17.9022 29.2256H22.7552V20.183L24.9163 20.9524C26.9084 21.6617 29.2242 20.0535 29.2259 17.9019C29.2242 15.7487 26.9099 14.1279 24.9163 14.8514L22.7552 15.6208V6.66021C10.6667 7.4629 0.802686 17.1371 0 29.2256H4.96085C4.96085 25.6569 7.86283 22.7549 11.4315 22.7549ZM48.5559 32.4609H43.7849C43.7849 36.0296 40.8829 38.9316 37.3142 38.9316C33.7455 38.9316 30.8435 36.0296 30.8435 32.4609H25.9905V41.5035L23.8294 40.7341C21.8294 40.0153 19.5182 41.6314 19.5199 43.7846C19.5182 45.9378 21.8311 47.5539 23.8294 46.8351L25.9905 46.0657V55.2161C38.079 54.4134 47.7532 44.5494 48.5559 32.4609Z" fill="var(--fill-0, #E22371)"/>
<path id="Vector_3" d="M48.6376 13.0492V6.57851H42.1669C42.1669 3.00983 39.2649 0 35.6962 0C32.1276 0 29.2256 3.00983 29.2256 6.57851H25.9902V11.4315C29.5589 11.4315 32.4609 14.3335 32.4609 17.9022C32.4609 21.4709 29.5589 24.3729 25.9902 24.3729V29.2259H35.0328L34.2634 31.387C34.1402 31.7317 34.0776 32.0951 34.0786 32.4612C34.0786 34.2447 35.5304 35.6965 37.3139 35.6965C39.0974 35.6965 40.5492 34.2447 40.5492 32.4612C40.5492 32.0915 40.4877 31.7298 40.3644 31.387L39.595 29.2259H48.6376V25.9905C52.2063 25.9905 55.2161 23.0885 55.2161 19.5199C55.2161 15.9512 52.2063 13.0492 48.6376 13.0492Z" fill="var(--fill-0, #E22371)"/>
</g>
</svg>
