<svg preserveAspectRatio="none" width="100%" height="100%" overflow="visible" style="display: block;" viewBox="0 0 67.1806 67.1818" fill="none" xmlns="http://www.w3.org/2000/svg">
<g id="Group">
<path id="Vector" d="M18.1998 17.9756H17.3574L15.7832 25.8484H19.7739L18.1998 17.9756ZM50.0407 33.7213C50.8906 36.0043 52.021 37.8523 53.272 39.4248C54.523 37.8523 55.7846 36.0041 56.6345 33.7213H50.0407Z" fill="var(--fill-0, #FF6E6E)"/>
<path id="Vector_2" d="M61.276 11.9407H36.8331L41.9297 52.8373C42.0198 54.5101 41.5625 56.0849 40.4708 57.3178L31.8398 67.1818H61.276C64.532 67.1818 67.1806 64.5331 67.1806 61.2772V17.9765C67.1806 14.7206 64.532 11.9407 61.276 11.9407ZM61.276 33.7222H60.7504C59.6305 37.3152 57.8545 40.1268 56.0088 42.3432C57.4547 43.6651 59.0008 44.7494 60.5379 45.964C61.3856 46.6425 61.524 47.8802 60.8435 48.7298C60.1662 49.5781 58.9236 49.7156 58.0777 49.0354C56.4074 47.7171 54.8397 46.6136 53.272 45.175C51.7042 46.6136 50.2677 47.7171 48.5975 49.0354C47.7515 49.7156 46.5089 49.5781 45.8316 48.7298C45.1511 47.8802 45.2895 46.6425 46.1372 45.964C47.6744 44.7494 49.0892 43.6651 50.5351 42.3432C48.6894 40.1269 47.0445 37.3154 45.9248 33.7222H45.3991C44.3112 33.7222 43.4309 32.8419 43.4309 31.754C43.4309 30.6661 44.3112 29.7858 45.3991 29.7858H51.3037V27.8176C51.3037 26.7297 52.1841 25.8494 53.272 25.8494C54.3598 25.8494 55.2402 26.7297 55.2402 27.8176V29.7858H61.276C62.3639 29.7858 63.2442 30.6661 63.2442 31.754C63.2442 32.8419 62.3639 33.7222 61.276 33.7222Z" fill="var(--fill-0, #FF6E6E)"/>
<path id="Vector_3" d="M32.0377 5.17233C31.6706 2.22382 29.1508 0 26.1793 0H5.90463C2.64869 0 0 2.64869 0 5.90463V49.4677C0 52.7236 2.64869 55.3723 5.90463 55.3723H36.9434C37.5176 54.716 37.9989 54.305 38.0193 53.4483C38.0243 53.2335 32.0644 5.38542 32.0377 5.17233ZM24.136 37.62C23.0924 37.8348 22.0352 37.1572 21.82 36.0765L20.562 29.7856H14.9971L13.7392 36.0765C13.5278 37.1413 12.5013 37.841 11.4231 37.62C10.3583 37.4066 9.66628 36.3707 9.87963 35.3039L13.8159 15.6218C14.0004 14.7031 14.8078 14.0399 15.7457 14.0399H19.8133C20.7512 14.0399 21.5586 14.7031 21.7431 15.6218L25.6795 35.3039C25.8929 36.3707 25.201 37.4066 24.136 37.62ZM22.9967 59.3088L23.3345 62.0093C23.5596 63.8178 24.7613 65.662 26.7379 66.5829L33.3457 59.3088H22.9967Z" fill="var(--fill-0, #FF6E6E)"/>
</g>
</svg>
