<svg preserveAspectRatio="none" width="100%" height="100%" overflow="visible" style="display: block;" viewBox="0 0 64.6674 64.6641" fill="none" xmlns="http://www.w3.org/2000/svg">
<g id="Group 2147226570">
<g id="Vector">
<path d="M28.3022 57.784H28.2378C28.1804 57.1451 27.8859 56.5509 27.4123 56.1182C26.9387 55.6855 26.3204 55.4458 25.6789 55.4461H25.6132C25.5561 54.807 25.2617 54.2125 24.7881 53.7795C24.3145 53.3466 23.696 53.1067 23.0543 53.107H22.9874C22.9412 52.6219 22.7581 52.1599 22.4593 51.7748C22.1606 51.3898 21.7585 51.0977 21.3001 50.9324C20.8416 50.7672 20.3456 50.7357 19.8699 50.8417C19.3943 50.9476 18.9585 51.1866 18.6135 51.5307L16.8705 53.2725C16.3894 53.755 16.1192 54.4086 16.1192 55.09C16.1192 55.7714 16.3894 56.425 16.8705 56.9075C17.1085 57.1475 17.3916 57.338 17.7035 57.468C18.0154 57.5981 18.35 57.6651 18.688 57.6653H18.7524C18.8128 58.3024 19.1086 58.894 19.5821 59.3245C20.0556 59.755 20.6727 59.9934 21.3126 59.9931H21.3783C21.4306 60.5925 21.6927 61.1542 22.1184 61.5794C22.3561 61.8195 22.6389 62.0101 22.9507 62.1401C23.2624 62.2702 23.5969 62.3372 23.9346 62.3373H23.9991C24.0453 62.823 24.2288 63.2856 24.5282 63.6708C24.8276 64.0561 25.2305 64.3483 25.6897 64.513C26.149 64.6778 26.6457 64.7085 27.1217 64.6014C27.5978 64.4944 28.0335 64.254 28.378 63.9085L30.1197 62.1668C30.4792 61.8073 30.724 61.3493 30.8232 60.8507C30.9224 60.3521 30.8715 59.8353 30.6769 59.3656C30.4824 58.896 30.1529 58.4945 29.7302 58.2121C29.3075 57.9297 28.8106 57.7789 28.3022 57.779V57.784ZM43.6898 36.0535L36.0484 34.6187C35.3044 34.48 34.5399 34.4961 33.8024 34.6658C33.0649 34.8355 32.3702 35.1552 31.7617 35.6051L24.2984 41.1435C23.9542 41.3986 23.6741 41.7304 23.4805 42.1126C23.2869 42.4948 23.185 42.9169 23.1829 43.3453C23.1808 43.7738 23.2786 44.1968 23.4685 44.5808C23.6584 44.9649 23.9352 45.2994 24.2769 45.5578C24.9211 46.0413 25.6962 46.3188 26.5008 46.3542C27.3054 46.3896 28.1019 46.1811 28.786 45.7561L32.4273 43.4726C32.8517 44.3163 33.6423 45.4631 35.0165 46.1704C36.6079 46.9876 38.5442 47.0091 40.7759 46.2323L47.5875 51.1379C47.7143 51.2292 47.8634 51.2845 48.0191 51.2978C48.1748 51.3111 48.3311 51.2821 48.4716 51.2137L53.1587 48.9188L47.3854 34.2992L43.6898 36.0535ZM64.6044 46.6314L57.5314 28.1507C57.4431 27.9201 57.2682 27.7332 57.0441 27.6296C56.82 27.526 56.5643 27.5141 56.3315 27.5962L53.794 28.5018L57.5465 38.8587C57.589 38.9757 57.6079 39.1 57.6023 39.2243C57.5967 39.3486 57.5667 39.4707 57.5139 39.5834C57.4611 39.6961 57.3866 39.7973 57.2947 39.8813C57.2028 39.9652 57.0952 40.0302 56.9782 40.0725C56.8748 40.1098 56.7659 40.129 56.6561 40.1293C56.4625 40.128 56.274 40.0673 56.1159 39.9555C55.9578 39.8437 55.8378 39.6862 55.772 39.5041L52.0119 29.1371L48.8796 30.2549C48.7599 30.2978 48.65 30.3644 48.5565 30.4505C48.463 30.5367 48.3878 30.6407 48.3353 30.7565C48.2827 30.8723 48.254 30.9975 48.2507 31.1246C48.2474 31.2517 48.2697 31.3782 48.3163 31.4965L55.7682 50.365C55.8145 50.4832 55.8842 50.5909 55.9731 50.6817C56.062 50.7724 56.1683 50.8442 56.2856 50.8929C56.403 50.9416 56.5289 50.9661 56.6559 50.9651C56.7829 50.964 56.9084 50.9373 57.0249 50.8866L64.0979 47.8389C64.3217 47.7418 64.4994 47.5619 64.5938 47.3369C64.6881 47.1119 64.6919 46.8592 64.6044 46.6314ZM16.335 30.7563C16.2828 30.6399 16.2077 30.5351 16.1142 30.4483C16.0207 30.3615 15.9106 30.2945 15.7906 30.2511L12.6557 29.1371L8.89948 39.5054C8.83366 39.6875 8.71363 39.845 8.55556 39.9568C8.39748 40.0685 8.20895 40.1292 8.01536 40.1306C7.90553 40.1303 7.79658 40.111 7.69328 40.0738C7.57623 40.0314 7.46867 39.9664 7.37675 39.8825C7.28482 39.7986 7.21034 39.6974 7.15756 39.5846C7.10477 39.4719 7.07472 39.3499 7.06912 39.2256C7.06352 39.1012 7.08248 38.977 7.12492 38.86L10.8774 28.5031L8.33617 27.5962C8.10303 27.5133 7.8467 27.5249 7.622 27.6285C7.39729 27.7321 7.22205 27.9195 7.13376 28.1507L0.06329 46.6314C-0.0243774 46.859 -0.0207669 47.1117 0.0733679 47.3366C0.167503 47.5616 0.344888 47.7415 0.568504 47.8389L7.6415 50.8866C7.75801 50.9369 7.88345 50.9633 8.01037 50.9642C8.13729 50.9652 8.26309 50.9405 8.38032 50.8919C8.49754 50.8432 8.60379 50.7715 8.69276 50.681C8.78172 50.5905 8.85159 50.483 8.89822 50.365L16.3501 31.4965C16.3971 31.3783 16.42 31.252 16.4174 31.1249C16.4148 30.9978 16.3868 30.8725 16.335 30.7563Z" fill="var(--fill-0, #6A1753)"/>
<path d="M46.4799 52.6773C46.9498 53.0162 47.5147 53.1983 48.0941 53.1977C48.5148 53.199 48.9303 53.1044 49.3091 52.9211L49.8775 52.6432C49.8797 53.1473 49.7675 53.6454 49.5492 54.0998C49.3309 54.5542 49.0123 54.9531 48.6174 55.2664C48.2225 55.5797 47.7615 55.7992 47.2694 55.9084C46.7773 56.0176 46.2668 56.0137 45.7764 55.8968C45.6785 56.6191 45.3467 57.2895 44.8316 57.8053L44.7786 57.8583C44.3561 58.2833 43.8264 58.5858 43.2457 58.7337C42.665 58.8816 42.0551 58.8693 41.4808 58.6982C41.3957 59.4443 41.06 60.1394 40.5285 60.6698L40.4502 60.7481C40.0307 61.1662 39.5076 61.465 38.9345 61.6139C38.3613 61.7629 37.7589 61.7566 37.189 61.5956C37.0752 62.2694 36.7578 62.8922 36.2796 63.3803L36.1723 63.4889C35.6062 64.061 34.8524 64.4092 34.0499 64.4695C33.2473 64.5299 32.45 64.2983 31.8047 63.8173L31.4372 63.542L31.4612 63.5167C31.999 62.9787 32.3905 62.3123 32.5985 61.5806C32.8066 60.8489 32.8243 60.0761 32.6499 59.3357C32.4756 58.5952 32.115 57.9116 31.6024 57.3495C31.0897 56.7875 30.442 56.3657 29.7207 56.1242C29.4633 55.5778 29.0981 55.089 28.6471 54.6873C28.1961 54.2855 27.6685 53.9791 27.0961 53.7863C26.8387 53.2401 26.4737 52.7515 26.0229 52.3497C25.5722 51.948 25.0449 51.6414 24.4728 51.4484C24.2532 50.9795 23.9541 50.5522 23.5887 50.1854C22.7508 49.3487 21.6151 48.8788 20.4311 48.8788C19.247 48.8788 18.1113 49.3487 17.2735 50.1854L15.5482 51.9107L11.2753 49.5021L17.3985 34.0046L19.9473 35.5279L23.1504 34.5743C24.0301 34.3158 24.9572 34.2612 25.8612 34.4143C26.7652 34.5675 27.6225 34.9246 28.368 35.4584L28.5789 35.61L23.1693 39.6251C22.589 40.0556 22.1169 40.6154 21.7906 41.2601C21.4642 41.9047 21.2925 42.6165 21.2891 43.3391C21.2856 44.0617 21.4506 44.7751 21.7708 45.4228C22.091 46.0705 22.5578 46.6348 23.134 47.0707C24.0844 47.7864 25.2293 48.1975 26.4179 48.2498C27.6065 48.3021 28.7831 47.9932 29.7927 47.3638L31.8767 46.0565C32.5099 46.7999 33.2822 47.4126 34.1502 47.8601C35.2596 48.423 36.4881 48.7106 37.7321 48.6988C38.6445 48.6906 39.5519 48.5632 40.4312 48.3199L46.4799 52.6773Z" fill="var(--fill-0, #6A1753)"/>
</g>
<g id="Vector_2">
<path d="M51.3972 14.8401C51.3972 14.9645 51.4217 15.0876 51.4693 15.2026C51.5169 15.3175 51.5867 15.4219 51.6747 15.5099C51.7626 15.5979 51.8671 15.6676 51.982 15.7152C52.0969 15.7628 52.2201 15.7873 52.3445 15.7873H57.5937C57.8449 15.7873 58.0858 15.6875 58.2635 15.5099C58.4411 15.3322 58.5409 15.0913 58.5409 14.8401C58.5409 14.5888 58.4411 14.3479 58.2635 14.1702C58.0858 13.9926 57.8449 13.8928 57.5937 13.8928H52.3445C52.0933 13.8928 51.8523 13.9926 51.6747 14.1702C51.497 14.3479 51.3972 14.5888 51.3972 14.8401ZM50.3767 10.5218C50.545 10.5231 50.7107 10.4795 50.8566 10.3954L54.7923 8.08283C55.01 7.95571 55.1683 7.7473 55.2324 7.50344C55.2964 7.25959 55.261 7.00027 55.1339 6.78254C55.0068 6.5648 54.7984 6.40649 54.5545 6.34241C54.3107 6.27834 54.0513 6.31376 53.8336 6.44089L49.8967 8.75729C49.7154 8.86168 49.5737 9.0232 49.4937 9.21662C49.4138 9.41004 49.4002 9.62447 49.4551 9.82644C49.5099 10.0284 49.63 10.2065 49.7968 10.333C49.9635 10.4595 50.1674 10.5272 50.3767 10.5255V10.5218ZM49.8967 20.9228L53.8336 23.2392C53.9414 23.3022 54.0606 23.3433 54.1843 23.3602C54.308 23.3771 54.4338 23.3694 54.5545 23.3377C54.6753 23.306 54.7886 23.2508 54.888 23.1753C54.9874 23.0998 55.071 23.0054 55.1339 22.8976C55.1968 22.7898 55.2379 22.6706 55.2548 22.5469C55.2717 22.4232 55.2641 22.2974 55.2324 22.1767C55.2006 22.0559 55.1455 21.9426 55.0699 21.8432C54.9944 21.7438 54.9001 21.6602 54.7923 21.5973L50.8566 19.2859C50.7493 19.2206 50.6301 19.1772 50.5059 19.1584C50.3816 19.1396 50.2549 19.1457 50.133 19.1763C50.0112 19.2069 49.8966 19.2615 49.7961 19.3368C49.6955 19.4121 49.6109 19.5067 49.5473 19.615C49.4836 19.7233 49.4421 19.8432 49.4252 19.9677C49.4083 20.0922 49.4164 20.2188 49.4489 20.3402C49.4814 20.4616 49.5378 20.5752 49.6147 20.6746C49.6915 20.774 49.7874 20.8571 49.8967 20.9191V20.9228ZM7.07228 15.7873H12.3214C12.5727 15.7873 12.8136 15.6875 12.9913 15.5099C13.1689 15.3322 13.2687 15.0913 13.2687 14.8401C13.2687 14.5888 13.1689 14.3479 12.9913 14.1702C12.8136 13.9926 12.5727 13.8928 12.3214 13.8928H7.07228C6.82104 13.8928 6.5801 13.9926 6.40245 14.1702C6.2248 14.3479 6.125 14.5888 6.125 14.8401C6.125 15.0913 6.2248 15.3322 6.40245 15.5099C6.5801 15.6875 6.82104 15.7873 7.07228 15.7873ZM9.87369 8.08283L13.8093 10.3942C13.9166 10.4595 14.0359 10.5029 14.1601 10.5217C14.2843 10.5406 14.411 10.5345 14.5329 10.5039C14.6548 10.4732 14.7693 10.4187 14.8699 10.3434C14.9704 10.268 15.055 10.1735 15.1187 10.0652C15.1824 9.95684 15.2238 9.83693 15.2407 9.71243C15.2576 9.58792 15.2495 9.4613 15.217 9.33994C15.1845 9.21858 15.1282 9.1049 15.0513 9.00552C14.9744 8.90614 14.8785 8.82305 14.7692 8.76108L10.8323 6.44089C10.7245 6.37794 10.6054 6.33685 10.4817 6.31995C10.358 6.30306 10.2322 6.31069 10.1114 6.34241C9.86757 6.40649 9.65916 6.5648 9.53204 6.78254C9.40491 7.00027 9.36949 7.25959 9.43356 7.50344C9.49763 7.7473 9.65595 7.95571 9.87369 8.08283ZM13.8093 19.2897L9.87369 21.5973C9.65595 21.7244 9.49763 21.9328 9.43356 22.1767C9.36949 22.4205 9.40491 22.6799 9.53204 22.8976C9.65916 23.1153 9.86757 23.2737 10.1114 23.3377C10.3553 23.4018 10.6146 23.3664 10.8323 23.2392L14.7692 20.9266C14.8785 20.8647 14.9744 20.7816 15.0513 20.6822C15.1282 20.5828 15.1845 20.4691 15.217 20.3478C15.2495 20.2264 15.2576 20.0998 15.2407 19.9753C15.2238 19.8508 15.1824 19.7309 15.1187 19.6226C15.055 19.5142 14.9704 19.4197 14.8699 19.3443C14.7693 19.269 14.6548 19.2145 14.5329 19.1839C14.411 19.1532 14.2843 19.1472 14.1601 19.166C14.0359 19.1848 13.9166 19.2282 13.8093 19.2935V19.2897ZM32.333 23.9971C34.1441 23.9971 35.9145 23.46 37.4203 22.4538C38.9262 21.4477 40.0999 20.0175 40.7929 18.3443C41.486 16.6711 41.6673 14.8299 41.314 13.0536C40.9607 11.2773 40.0886 9.64572 38.8079 8.36509C37.5273 7.08446 35.8957 6.21234 34.1194 5.85902C32.3431 5.50569 30.502 5.68703 28.8287 6.3801C27.1555 7.07317 25.7254 8.24685 24.7192 9.75271C23.713 11.2586 23.176 13.029 23.176 14.8401C23.1786 17.2678 24.1443 19.5954 25.8609 21.3121C27.5776 23.0288 29.9052 23.9944 32.333 23.9971ZM26.6342 13.7438C26.8177 13.5723 27.0619 13.4807 27.313 13.4892C27.5641 13.4978 27.8015 13.6057 27.973 13.7892L30.9007 16.9241L36.693 10.7188C36.8645 10.5345 37.1021 10.426 37.3537 10.417C37.6052 10.408 37.8501 10.4993 38.0343 10.6708C38.2185 10.8423 38.3271 11.08 38.3361 11.3315C38.3451 11.5831 38.2538 11.8279 38.0823 12.0121L31.5979 18.9588C31.5091 19.0543 31.4016 19.1305 31.2821 19.1825C31.1626 19.2346 31.0336 19.2615 30.9032 19.2615C30.7728 19.2615 30.6439 19.2346 30.5243 19.1825C30.4048 19.1305 30.2973 19.0543 30.2085 18.9588L26.59 15.0813C26.505 14.9906 26.4387 14.884 26.395 14.7677C26.3512 14.6514 26.3308 14.5276 26.3349 14.4034C26.339 14.2792 26.3676 14.157 26.4189 14.0438C26.4703 13.9306 26.5434 13.8287 26.6342 13.7438Z" fill="var(--fill-0, #6A1753)"/>
<path d="M32.3332 29.6813C35.2684 29.6813 38.1377 28.8109 40.5783 27.1802C43.0188 25.5495 44.921 23.2317 46.0442 20.5199C47.1675 17.8082 47.4614 14.8242 46.8887 11.9454C46.3161 9.06659 44.9027 6.42224 42.8272 4.34673C40.7517 2.27123 38.1073 0.857796 35.2285 0.285166C32.3497 -0.287464 29.3657 0.00643019 26.654 1.12968C23.9422 2.25294 21.6244 4.1551 19.9937 6.59564C18.363 9.03617 17.4926 11.9055 17.4926 14.8407C17.4969 18.7753 19.0619 22.5476 21.8441 25.3298C24.6263 28.112 28.3986 29.677 32.3332 29.6813ZM32.3332 3.78911C34.519 3.78911 36.6557 4.43727 38.4731 5.65163C40.2906 6.86599 41.7071 8.59201 42.5435 10.6114C43.38 12.6308 43.5989 14.8529 43.1724 16.9967C42.746 19.1405 41.6934 21.1097 40.1479 22.6553C38.6023 24.2009 36.6331 25.2534 34.4893 25.6799C32.3455 26.1063 30.1234 25.8874 28.104 25.051C26.0846 24.2145 24.3586 22.798 23.1442 20.9806C21.9298 19.1632 21.2817 17.0265 21.2817 14.8407C21.285 11.9106 22.4504 9.10157 24.5223 7.02973C26.5941 4.95788 29.4032 3.79245 32.3332 3.78911Z" fill="var(--fill-0, #6A1753)"/>
</g>
</g>
</svg>
