<svg preserveAspectRatio="none" width="100%" height="100%" overflow="visible" style="display: block;" viewBox="0 0 64.3145 65.3846" fill="none" xmlns="http://www.w3.org/2000/svg">
<g id="Group">
<path id="Vector" fill-rule="evenodd" clip-rule="evenodd" d="M32.1446 0.0317583C34.7095 2.17054 34.7095 7.03026 32.1446 9.16904C32.1203 9.18954 32.0896 9.2008 32.0578 9.2008C32.0261 9.2008 31.9954 9.18954 31.9711 9.16904C29.4062 7.03041 29.4062 2.17039 31.9711 0.0317583C31.9954 0.0112519 32.0261 0 32.0578 0C32.0896 0 32.1203 0.0112519 32.1446 0.0317583ZM0.404229 41.9021C3.23682 43.6675 7.85441 42.1457 9.08234 39.0419C9.09416 39.0125 9.09519 38.9798 9.08526 38.9497C9.07532 38.9195 9.05506 38.8939 9.02804 38.8772C6.19545 37.1118 1.57786 38.6335 0.34993 41.7373C0.338107 41.7668 0.337072 41.7995 0.347007 41.8296C0.356943 41.8597 0.37721 41.8854 0.404229 41.9021ZM0.280182 26.3651C1.52983 29.4602 6.15782 30.9497 8.97817 29.1644C9.00509 29.1475 9.02519 29.1218 9.03491 29.0915C9.04462 29.0613 9.04333 29.0287 9.03125 28.9993C7.7816 25.9043 3.15361 24.4148 0.333258 26.2001C0.306384 26.2169 0.286322 26.2427 0.276612 26.2729C0.266901 26.3031 0.268166 26.3358 0.280182 26.3651ZM63.7115 41.9021C60.8787 43.6675 56.2613 42.1457 55.0333 39.0419C55.0215 39.0125 55.0205 38.9798 55.0304 38.9497C55.0404 38.9195 55.0606 38.8939 55.0876 38.8772C57.9204 37.1118 62.5378 38.6335 63.7658 41.7373C63.7776 41.7668 63.7786 41.7995 63.7687 41.8296C63.7587 41.8597 63.7385 41.8854 63.7115 41.9021ZM63.8355 26.3651C62.5858 29.4602 57.9579 30.9497 55.1375 29.1644C55.1106 29.1475 55.0905 29.1218 55.0808 29.0915C55.0711 29.0613 55.0724 29.0287 55.0844 28.9993C56.3341 25.9043 60.9621 24.4148 63.7824 26.2001C63.8093 26.2169 63.8294 26.2427 63.8391 26.2729C63.8488 26.3031 63.8475 26.3358 63.8355 26.3651ZM16.3253 3.73834C15.9591 5.20473 16.3306 7.01756 17.4585 8.56532C18.5864 10.1131 20.1981 11.0221 21.7062 11.1227C21.7379 11.1251 21.7694 11.1161 21.7951 11.0974C21.8208 11.0786 21.839 11.0514 21.8465 11.0206C22.2127 9.55403 21.8412 7.74135 20.7133 6.19359C19.5854 4.64567 17.9735 3.73681 16.4655 3.63616C16.4338 3.63382 16.4023 3.6428 16.3766 3.66152C16.351 3.68023 16.3327 3.70745 16.3253 3.73834ZM47.7904 3.73834C48.1566 5.20473 47.7851 7.01756 46.6572 8.56532C45.5293 10.1131 43.9176 11.0221 42.4094 11.1227C42.3778 11.1251 42.3463 11.1161 42.3206 11.0974C42.2949 11.0786 42.2767 11.0514 42.2692 11.0206C41.903 9.55403 42.2745 7.74135 43.4024 6.19359C44.5303 4.64567 46.1422 3.73681 47.6502 3.63616C47.6819 3.63385 47.7133 3.64285 47.739 3.66156C47.7647 3.68026 47.7829 3.70747 47.7904 3.73834ZM16.8783 43.4847C16.468 47.7797 18.3008 53.4788 22.1448 58.6734C24.1974 61.4474 26.5554 63.7151 28.9512 65.3575C28.9735 65.3733 29.0003 65.3816 29.0276 65.3813H35.1293C35.1691 65.3813 35.2032 65.366 35.2298 65.3366C35.2428 65.3227 35.2525 65.3062 35.2584 65.2881C35.2643 65.2701 35.2662 65.251 35.264 65.2321C34.8675 61.4229 33.0825 56.9728 30.0258 52.8419C26.1819 47.6474 21.2676 44.2284 17.0403 43.3652C17.0218 43.3612 17.0026 43.3612 16.984 43.3653C16.9655 43.3694 16.948 43.3776 16.933 43.3891C16.9174 43.4001 16.9045 43.4143 16.895 43.4308C16.8856 43.4473 16.8799 43.4657 16.8783 43.4847ZM47.2132 43.4847C47.6236 47.7795 45.7907 53.4788 41.9469 58.6734C40.5175 60.6049 38.9402 62.2909 37.3053 63.6914C37.2674 63.7238 37.2187 63.7328 37.1718 63.716C37.1248 63.6992 37.0928 63.6613 37.0841 63.6122C36.4974 60.2791 35.0882 56.9832 33.2985 54.0669C33.2845 54.0449 33.2774 54.0192 33.278 53.9931C33.2786 53.967 33.2868 53.9417 33.3017 53.9203C37.0655 48.3738 42.332 44.3279 47.0515 43.3651C47.0701 43.361 47.0893 43.3611 47.1079 43.3652C47.1265 43.3693 47.1439 43.3774 47.159 43.3889C47.1744 43.4001 47.1872 43.4144 47.1966 43.4309C47.2059 43.4474 47.2116 43.4658 47.2132 43.4847ZM32.1464 39.5559C33.8483 41.4489 35.2132 44.1996 36.0463 47.4641C36.0525 47.4872 36.0524 47.5115 36.0459 47.5345C36.0394 47.5574 36.0268 47.5782 36.0095 47.5946C34.603 48.9627 33.32 50.4522 32.1753 52.0458C32.1492 52.0823 32.1105 52.1021 32.0655 52.1021C32.0205 52.1021 31.9818 52.0822 31.9557 52.0456C30.803 50.4383 29.5098 48.9367 28.0912 47.5584C28.0738 47.542 28.0612 47.5212 28.0547 47.4982C28.0482 47.4752 28.0481 47.4508 28.0544 47.4277C28.8884 44.1793 30.2494 41.4418 31.9453 39.5559C31.9578 39.5415 31.9733 39.5301 31.9907 39.5224C32.008 39.5147 32.0269 39.5108 32.0459 39.5111C32.0855 39.5111 32.1198 39.5263 32.1464 39.5559ZM0.0583963 56.1094C5.2511 52.4979 10.9216 51.8598 16.4675 52.837C16.4901 52.8407 16.5113 52.8502 16.5292 52.8646C16.547 52.8789 16.5607 52.8977 16.5691 52.919C18.4642 57.5417 21.6327 61.9177 25.3529 65.1358C25.3744 65.1539 25.3895 65.1785 25.3962 65.2058C25.4029 65.2332 25.4007 65.2619 25.39 65.2879C25.38 65.3142 25.3618 65.3366 25.3382 65.3519C25.3146 65.3672 25.2867 65.3747 25.2586 65.3731C20.7045 65.1795 15.9312 64.2869 12.031 62.2137C8.65742 60.4206 6.88665 58.3303 3.54151 56.9731C2.47403 56.5401 1.33573 56.3449 0.136862 56.3556C0.107879 56.3562 0.0795032 56.3473 0.056021 56.3303C0.0325387 56.3133 0.0152256 56.2891 0.00669703 56.2614C-0.00236844 56.2339 -0.00222679 56.2042 0.0071008 56.1767C0.0164284 56.1493 0.0344348 56.1257 0.0583963 56.1094ZM64.2561 56.1094C58.9759 52.4372 53.202 51.8384 47.5673 52.887C47.545 52.8909 47.5241 52.9003 47.5065 52.9146C47.489 52.9289 47.4754 52.9474 47.4671 52.9684C45.5522 57.6091 42.4041 61.9228 38.674 65.1469C38.6525 65.1651 38.6373 65.1895 38.6306 65.2168C38.6239 65.2441 38.6259 65.2728 38.6365 65.2988C38.6579 65.3531 38.7088 65.3866 38.7673 65.3845C43.4078 65.2167 48.3008 64.3307 52.2835 62.2138C55.6571 60.4207 57.4279 58.3304 60.773 56.9733C61.8405 56.5402 62.9786 56.3451 64.1777 56.3558C64.2379 56.3564 64.2895 56.3191 64.3078 56.2616C64.3262 56.2041 64.3057 56.1438 64.2561 56.1094ZM32.0578 17.998C34.548 17.998 36.5665 20.0167 36.5665 22.5068C36.5665 24.9969 34.548 27.0155 32.0578 27.0155C29.5677 27.0155 27.549 24.9968 27.549 22.5068C27.5492 20.0167 29.5679 17.998 32.0578 17.998ZM26.3459 45.9869C25.2871 39.255 23.8446 32.8228 21.9722 30.9504L11.5943 20.5725C10.5671 19.5453 10.5671 17.8644 11.5943 16.837C12.6208 15.8105 14.2998 15.8098 15.3272 16.8346L15.3317 16.8389L24.6754 25.3577C26.6995 27.2117 29.3455 28.2388 32.0903 28.2357C34.8351 28.2327 37.4789 27.1999 39.4988 25.3415L48.7843 16.8387L48.7885 16.8347C49.8159 15.8099 52.5215 15.3855 52.5215 16.837C53.5489 17.8643 53.5489 19.5451 52.5215 20.5725L42.1436 30.9504C40.2734 32.8206 38.8324 39.2393 37.774 45.9617C37.7693 45.9942 37.7526 46.0237 37.7272 46.0444L37.7194 46.051C36.8802 43.1795 35.5231 40.2844 33.5062 38.0982L32.1452 36.6228C32.1186 36.594 32.0849 36.5792 32.0458 36.5792C32.0066 36.5792 31.973 36.5939 31.9463 36.6228L30.5853 38.0982C28.576 40.2763 27.2215 43.1577 26.382 46.0172L26.3459 45.9869Z" fill="var(--fill-0, #AAA835)"/>
</g>
</svg>
