<svg preserveAspectRatio="none" width="100%" height="100%" overflow="visible" style="display: block;" viewBox="0 0 51.9361 71.6412" fill="none" xmlns="http://www.w3.org/2000/svg">
<g id="Group">
<path id="Vector" fill-rule="evenodd" clip-rule="evenodd" d="M37.7769 38.1182C35.5297 38.1182 33.7082 39.9192 33.7082 42.1411C33.7082 44.363 35.5299 46.164 37.7769 46.164C40.024 46.164 41.8455 44.3628 41.8455 42.1411C41.8455 39.9194 40.0238 38.1182 37.7769 38.1182ZM27.8843 42.1924C29.7411 42.8032 32.2316 46.3499 35.0323 47.0414C37.2655 47.5927 40.5511 47.3324 41.9285 46.569L47.4216 43.5244C48.0781 43.1605 48.9003 43.5837 49.2658 44.2342C49.5077 44.6648 49.6136 45.0191 49.4633 45.526C49.342 45.9346 49.0294 46.1599 48.7093 46.4447C46.4433 48.4604 44.3752 49.4348 44.0964 51.9022C44.0935 51.9252 44.0963 51.9485 44.1046 51.9702C44.1128 51.9918 44.1263 52.0112 44.1438 52.0266L51.8878 59.0118C51.9252 59.0457 51.9419 59.0919 51.9343 59.1415C51.931 59.1653 51.9216 59.188 51.9071 59.2073C51.8926 59.2266 51.8734 59.242 51.8512 59.252L47.5683 61.2521C47.5487 61.2608 47.5314 61.2738 47.5177 61.2901C47.5039 61.3064 47.494 61.3255 47.4887 61.3461C47.4828 61.3665 47.4816 61.388 47.4852 61.4089C47.4889 61.4299 47.4972 61.4497 47.5097 61.467C48.7954 63.3156 50.2074 65.038 51.303 66.7319C52.5212 68.6154 48.9943 71.3536 46.6417 67.3123C46.6355 67.3013 46.6278 67.2912 46.6187 67.2823L42.4769 63.1394C42.4602 63.1223 42.4395 63.1096 42.4166 63.1024C42.3937 63.0952 42.3694 63.0938 42.3458 63.0983L40.5251 63.4198C40.4998 63.4239 40.476 63.4346 40.4563 63.4507C40.4366 63.4669 40.4216 63.488 40.4128 63.5118C39.6288 65.5532 39.9419 68.2521 40 69.6951C40.0947 72.0446 36.2338 72.1907 35.497 68.7609C35.0877 66.8555 34.849 65.2493 34.7658 63.6821C34.7641 63.6476 34.7501 63.6148 34.7262 63.5896C34.7023 63.5644 34.6701 63.5485 34.6354 63.5446L30.847 63.1044C30.826 63.1023 30.8057 63.0956 30.7876 63.0848C30.7695 63.074 30.7541 63.0594 30.7424 63.042C30.7301 63.0249 30.7219 63.0054 30.7181 62.9849C30.7144 62.9643 30.7154 62.9431 30.721 62.923L33.327 52.8388C33.3368 52.803 33.3321 52.765 33.3139 52.7326C31.3214 49.1107 26.308 45.7628 25.8426 44.1941C25.5103 43.0746 26.5983 41.7694 27.8843 42.1924ZM23.6676 42.1924C21.8108 42.8032 19.3205 46.35 16.5196 47.0414C14.2864 47.5927 11.0008 47.3324 9.62336 46.569L4.13014 43.5244C3.47366 43.1605 2.65142 43.5837 2.28595 44.2344C2.04399 44.665 1.9381 45.0193 2.08845 45.526C2.20974 45.9346 2.52219 46.1599 2.84241 46.4447C5.27927 48.6124 7.48735 49.5756 7.48735 52.4867C7.4356 58.3376 2.90941 62.6184 0.248856 66.7319C-0.969653 68.6158 2.55982 71.3553 4.91237 67.3085C4.91718 67.3 4.92287 67.2921 4.92936 67.2848L9.51984 62.1175C9.96232 61.6194 10.008 61.3326 10.6479 61.3326C14.1581 61.3326 12.9726 67.8276 12.888 69.9309C12.7934 72.2804 16.654 72.4265 17.391 68.9967C18.4208 64.2035 18.3704 61.3036 17.4847 56.1554C16.6617 51.3716 25.0988 46.2519 25.7094 44.1941C26.0416 43.0745 24.9536 41.7695 23.6676 42.1924ZM13.5934 38.1182C15.8405 38.1182 17.662 39.9192 17.662 42.1411C17.662 44.363 15.8404 46.164 13.5934 46.164C11.3463 46.164 9.52477 44.3628 9.52477 42.1411C9.52477 39.9194 11.3463 38.1182 13.5934 38.1182Z" fill="var(--fill-0, #5BBDAD)"/>
<path id="Vector_2" fill-rule="evenodd" clip-rule="evenodd" d="M40.7043 13.6198C39.6564 10.014 39.7104 7.24596 38.909 3.95803C37.7876 -0.642259 32.2417 -1.16877 28.8375 2.04664C28.212 2.63751 27.6152 3.32289 27.0424 4.06336C27.0267 4.08412 27.0057 4.1003 26.9815 4.11017C26.9573 4.12004 26.9309 4.12323 26.905 4.1194C23.0099 3.59666 19.5241 6.58429 19.5241 10.4893C19.5241 14.0396 22.435 16.9178 26.0256 16.9178C29.6162 16.9178 32.5272 14.0397 32.5272 10.4893C32.5272 8.68107 31.7719 7.04738 30.5564 5.8793C30.5408 5.86477 30.5287 5.84695 30.521 5.82717C30.5133 5.80739 30.5102 5.78614 30.512 5.76502C30.513 5.74384 30.5189 5.72317 30.5291 5.70453C30.5393 5.68589 30.5537 5.66976 30.571 5.65733C31.0365 5.3137 31.5123 5.0696 32.0024 4.94417C35.6151 4.01972 36.5372 8.16633 37.787 10.1427C38.4744 11.2299 39.3579 12.4272 40.4475 13.7523C40.4689 13.7786 40.4988 13.7968 40.5323 13.8036C40.5657 13.8104 40.6005 13.8055 40.6306 13.7897C40.6609 13.7743 40.6849 13.7489 40.6984 13.7178C40.7118 13.6868 40.7139 13.6522 40.7043 13.6198ZM37.5814 31.093C36.8831 30.1763 35.6489 30.6898 35.6489 31.6465V36.4547C35.6493 36.484 35.6405 36.5128 35.6238 36.5371C35.6071 36.5613 35.5833 36.58 35.5556 36.5905C33.3754 37.4446 31.8234 39.515 31.7441 41.9424C31.7422 42.0001 31.709 42.0486 31.6554 42.0717C31.6017 42.0948 31.5433 42.0858 31.4992 42.0479C30.5742 41.2495 29.584 40.4854 28.5712 40.1523C27.6226 39.8403 26.6874 39.93 25.8885 40.2911C25.8687 40.3004 25.8471 40.3051 25.8253 40.3048C25.8034 40.3046 25.7819 40.2994 25.7624 40.2897C24.937 39.8935 23.9595 39.7856 22.9675 40.1118C21.86 40.4762 20.7845 41.3479 19.7896 42.2208C19.7685 42.2398 19.7422 42.2522 19.714 42.2565C19.6858 42.2608 19.657 42.2568 19.6311 42.245C19.605 42.2338 19.5827 42.2153 19.5671 42.1916C19.5516 42.168 19.5434 42.1404 19.5436 42.1122C19.5333 39.9289 18.3137 38.0036 16.4784 36.9955C16.4551 36.9831 16.4357 36.9646 16.4223 36.9421C16.4089 36.9196 16.402 36.8938 16.4023 36.8677V31.6465C16.4023 30.6898 15.168 30.1763 14.4699 31.093L6.16909 41.9951C6.1477 42.0235 6.11655 42.0432 6.08149 42.0505C6.04643 42.0578 6.00988 42.0522 5.97873 42.0347L5.21508 41.6115C4.13644 41.0137 2.91778 41.0973 1.91582 41.6342C1.85708 41.6656 1.78722 41.6554 1.74039 41.6085C1.69355 41.5615 1.68387 41.4923 1.71626 41.4347L12.1075 22.916C13.208 20.9548 14.9449 19.6999 17.169 19.2595C23.0999 18.0848 29.0048 18.0889 34.8837 19.2562C37.1064 19.6974 38.8418 20.9518 39.9417 22.9119L50.7365 42.1496C50.7724 42.2136 50.7556 42.2927 50.6965 42.337C50.6374 42.3813 50.5557 42.3759 50.5031 42.3243C49.4256 41.2672 47.7708 40.8661 46.3586 41.6488L45.9509 41.8747C45.9197 41.8921 45.8832 41.8977 45.8482 41.8904C45.8132 41.8831 45.782 41.8635 45.7606 41.8351L37.5814 31.093ZM25.7032 47.7291C24.5406 48.8656 23.3386 49.9367 22.2271 51.1236C21.2789 52.1363 19.4108 54.272 19.6714 55.7878C20.4562 60.3493 20.6266 63.5362 19.8907 67.7628C19.8869 67.7829 19.8875 67.8035 19.8925 67.8233C19.8976 67.8432 19.9068 67.8617 19.9197 67.8776C20.8807 69.095 22.3758 69.8566 24.0473 69.8566H28.8981C30.5825 69.8566 32.0875 69.076 33.0473 67.8451C33.0602 67.8291 33.0694 67.8105 33.0743 67.7906C33.0792 67.7707 33.0797 67.75 33.0757 67.7299C32.9462 67.0246 32.8384 66.3156 32.7523 65.6039C32.7486 65.5712 32.7338 65.5406 32.7102 65.5174C32.6867 65.4941 32.6558 65.4794 32.6227 65.4758L28.125 64.9532C28.1039 64.9511 28.0837 64.9443 28.0656 64.9335C28.0475 64.9227 28.032 64.9081 28.0203 64.8907C28.0081 64.8737 27.9999 64.8542 27.9961 64.8336C27.9924 64.813 27.9934 64.7919 27.9989 64.7717L30.9946 53.1799C31.0001 53.16 31.0011 53.1392 30.9975 53.1189C30.994 53.0986 30.986 53.0793 30.9741 53.0623C29.7224 51.218 27.5388 49.3144 25.9108 47.7288C25.8831 47.7019 25.8458 47.6869 25.8069 47.6869C25.7681 47.687 25.7308 47.7021 25.7032 47.7291Z" fill="var(--fill-0, #5BBDAD)"/>
</g>
</svg>
