<svg preserveAspectRatio="none" width="100%" height="100%" overflow="visible" style="display: block;" viewBox="0 0 64.524 64.4609" fill="none" xmlns="http://www.w3.org/2000/svg">
<g id="Group">
<path id="Vector" fill-rule="evenodd" clip-rule="evenodd" d="M51.8427 57.8358L41.3395 57.7469L41.3284 48.7461C41.3268 46.6723 41.5162 44.6971 43.0822 43.3097L43.0825 43.3093C45.1245 41.4988 48.8205 38.7557 51.6921 35.4387C52.4804 34.781 53.6364 34.7213 54.3706 35.4448L54.371 35.4452C55.0986 36.1615 55.0827 37.1215 54.3927 38.047C52.7701 39.8393 51.0325 41.3725 49.229 43.1437C48.7723 43.5923 48.7718 44.3212 49.2278 44.7704C49.6839 45.2197 50.4249 45.2202 50.8816 44.7716C52.7318 42.9546 54.5112 41.3807 56.174 39.5386L56.1751 39.5374C56.1858 39.5256 56.1961 39.5136 56.2064 39.5014L57.0705 38.4608C57.0713 38.4598 57.0722 38.4587 57.0729 38.4577C58.3558 36.9021 59.0322 35.1904 59.0239 33.186L58.9763 23.5066C58.965 20.6744 59.5543 19.0648 60.5147 18.3423C61.2388 17.7975 62.1353 17.9307 62.8141 18.3403C63.387 18.686 63.8489 19.2312 63.8665 19.8397L64.5211 39.9154V39.9168C64.5738 41.6821 63.9206 43.2136 62.653 44.4632L52.1851 54.7584C51.9658 54.9742 51.8426 55.2669 51.8425 55.572L51.8427 57.8358ZM15.4203 20.887C13.5542 20.8865 11.9995 20.8858 11.1172 20.8849C11.0181 20.8849 10.9201 20.8636 10.8303 20.8224C10.7404 20.7812 10.6608 20.7212 10.597 20.6465C10.5333 20.5718 10.4869 20.4843 10.4612 20.3901C10.4355 20.2959 10.4311 20.1973 10.4482 20.1013C11.3526 15.3348 15.6026 11.7263 20.709 11.7263C23.5503 11.7263 26.1257 12.8421 28.0082 14.6524C25.7093 13.9533 23.4431 14.0239 21.4859 14.6797C18.646 15.6312 16.3624 17.8172 15.4203 20.887ZM24.3745 60.0374L26.8798 60.0162C27.1172 60.0151 27.3146 60.2029 27.3168 60.436L27.3464 63.8825L27.3466 63.8836C27.3488 64.1151 27.1562 64.3051 26.9196 64.307H26.9188L8.72819 64.4609H8.72724C8.49076 64.4631 8.29689 64.2728 8.29375 64.0395L8.2659 60.5982V60.5965C8.26357 60.3639 8.45731 60.173 8.69461 60.1701L11.5117 60.1462L11.5323 60.146L24.3512 60.0375L24.3745 60.0374ZM26.0088 61.7205C25.7521 61.0809 25.0176 60.7688 24.3673 61.0212C23.7192 61.2771 23.3982 62.0017 23.6584 62.6392C23.9151 63.2789 24.6532 63.5891 25.3035 63.3366C25.9518 63.0806 26.2691 62.3581 26.0088 61.7205ZM43.815 10.3834C40.9086 10.3834 38.5395 8.0504 38.5395 5.19168C38.5395 2.33296 40.9086 0 43.815 0C46.7241 0 49.0932 2.33296 49.0932 5.19168C49.0932 8.0504 46.7241 10.3834 43.815 10.3834ZM40.1495 60.0374L40.1728 60.0375L52.9917 60.146L53.0123 60.1462L55.8294 60.1701C56.0667 60.173 56.2604 60.3639 56.2581 60.5965V60.5982L56.2303 64.0395C56.2271 64.2728 56.0333 64.4631 55.7968 64.4609H55.7958L37.6052 64.307H37.6044C37.3678 64.3051 37.1753 64.1151 37.1774 63.8836L37.1776 63.8825L37.2072 60.436C37.2094 60.2029 37.4068 60.0151 37.6442 60.0162L40.1495 60.0374ZM38.5152 61.7205C38.255 62.3581 38.5723 63.0806 39.2205 63.3366C39.8708 63.5891 40.6089 63.2789 40.8656 62.6392C41.1258 62.0017 40.8048 61.2771 40.1567 61.0212C39.5064 60.7688 38.7719 61.0809 38.5152 61.7205ZM12.6814 57.8358L12.6815 55.572C12.6815 55.2669 12.5582 54.9742 12.3389 54.7584L1.87099 44.4632C0.603425 43.2136 -0.0497456 41.6821 0.00295586 39.9168V39.9154L0.657492 19.8397C0.675105 19.2312 1.13699 18.686 1.70988 18.3403C2.38872 17.9307 3.28519 17.7975 4.00936 18.3423C4.96973 19.0648 5.559 20.6744 5.54767 23.5066L5.50016 33.186C5.49183 35.1904 6.16821 36.9021 7.45107 38.4577C7.45186 38.4587 7.45268 38.4598 7.45353 38.4608L8.31764 39.5014C8.32788 39.5136 8.33826 39.5256 8.34891 39.5374L8.35 39.5386C10.0128 41.3807 11.7923 42.9546 13.6424 44.7716C14.0991 45.2202 14.8401 45.2197 15.2962 44.7704C15.7522 44.3212 15.7517 43.5923 15.295 43.1437C13.4915 41.3725 11.7539 39.8393 10.1313 38.047C9.4413 37.1215 9.42546 36.1615 10.153 35.4452L10.1535 35.4448C10.8876 34.7213 12.0436 34.781 12.8319 35.4387C15.7035 38.7557 19.3996 41.4988 21.4415 43.3093L21.4418 43.3097C23.0078 44.6971 23.1972 46.6723 23.1956 48.7461L23.1845 57.7469L12.6814 57.8358ZM36.5184 14.6527C38.4004 12.8423 40.9752 11.7263 43.815 11.7263C48.9241 11.7263 53.1744 15.335 54.0797 20.101C54.0968 20.1975 54.0923 20.2966 54.0664 20.3912C54.0405 20.4858 53.9938 20.5736 53.9298 20.6487C53.8657 20.7237 53.7857 20.784 53.6955 20.8254C53.6052 20.8668 53.5068 20.8883 53.4072 20.8884L49.1037 20.8882C48.1613 17.8181 45.8761 15.6328 43.0341 14.6818C41.0786 14.0274 38.8149 13.9565 36.5184 14.6527ZM20.709 10.3834C17.8027 10.3834 15.4337 8.0504 15.4337 5.19168C15.4337 2.33296 17.8027 0 20.709 0C23.6183 0 25.9873 2.33296 25.9873 5.19168C25.9873 8.0504 23.6183 10.3834 20.709 10.3834ZM31.9599 40.9891C26.7888 37.9987 17.2672 31.1357 17.1401 24.2914C17.0001 16.6714 25.7076 13.2117 32.2589 19.7682C38.8101 13.218 47.5239 16.6714 47.3839 24.2914C47.2568 31.1357 37.7352 37.9987 32.5642 40.9891C32.3733 41.1018 32.1507 41.1018 31.9599 40.9891Z" fill="var(--fill-0, #F69538)"/>
</g>
</svg>
